<svg xmlns="http://www.w3.org/2000/svg" version="1.1" xmlns:xlink="http://www.w3.org/1999/xlink" xmlns:svgjs="http://svgjs.dev/svgjs" width="2000" height="2834" viewBox="0 0 2000 2834"><g transform="matrix(1,0,0,1,-2.0866359447005607,-4.570967741935647)"><svg viewBox="0 0 175 248" data-background-color="#ffffff" preserveAspectRatio="xMidYMid meet" height="2834" width="2000" xmlns="http://www.w3.org/2000/svg" xmlns:xlink="http://www.w3.org/1999/xlink"><g id="tight-bounds" transform="matrix(1,0,0,1,0.1825806451612948,0.4000000000000057)"><svg viewBox="0 0 174.63483870967744 247.2" height="247.2" width="174.63483870967744"><g><svg viewBox="0 0 174.63483870967744 247.2" height="247.2" width="174.63483870967744"><g><svg viewBox="0 0 174.63483870967744 247.2" height="247.2" width="174.63483870967744"><g><svg viewBox="0 0 174.63483870967744 247.2" height="247.2" width="174.63483870967744"><g><svg viewBox="0 0 174.63483870967744 247.2" height="247.2" width="174.63483870967744"><g id="textblocktransform"><svg viewBox="0 0 174.63483870967744 247.2" height="247.2" width="174.63483870967744" id="textblock"><g><svg viewBox="0 0 174.63483870967744 247.2" height="247.2" width="174.63483870967744"><g transform="matrix(1,0,0,1,0,0)"><svg width="174.63483870967744" viewBox="4.45 -30.65 21.900000000000002 31" height="247.2" data-palette-color="#bb84e8"><path d="M21.3-1.3L7.6-15.5 10.75-17.5Q16.05-12.4 19.88-8.4 23.7-4.4 26.35-2L26.35-2Q26.3-0.9 25.7-0.28 25.1 0.35 24.2 0.35L24.2 0.35Q23.35 0.35 22.68-0.15 22-0.65 21.3-1.3L21.3-1.3ZM23.55-26.15L11.3-14.1 7.25-15 22.3-30.6Q23.6-30.55 24.25-29.95 24.9-29.35 24.9-28.55L24.9-28.55Q24.9-27.9 24.58-27.33 24.25-26.75 23.55-26.15L23.55-26.15ZM4.45-1.55L4.45-18.35 8.55-18.35 8.55-0.05Q8.25 0.05 7.75 0.18 7.25 0.3 6.65 0.3L6.65 0.3Q5.55 0.3 5-0.15 4.45-0.6 4.45-1.55L4.45-1.55ZM8.55-28.8L8.55-15 4.45-15 4.45-30.3Q4.7-30.4 5.23-30.53 5.75-30.65 6.35-30.65L6.35-30.65Q7.45-30.65 8-30.23 8.55-29.8 8.55-28.8L8.55-28.8Z" opacity="1" transform="matrix(1,0,0,1,0,0)" fill="#bb84e8" class="wordmark-text-0" data-fill-palette-color="primary" id="text-0"></path></svg></g></svg></g></svg></g></svg></g><g></g></svg></g></svg></g></svg></g><defs></defs></svg><rect width="174.63483870967744" height="247.2" fill="none" stroke="none" visibility="hidden"></rect></g></svg></g></svg>